<svg width="40" height="40" viewBox="0 0 40 40" fill="none" xmlns="http://www.w3.org/2000/svg">
<circle cx="20" cy="20" r="20" fill="#F8F8FB"/>
<path d="M27.8261 10.8696H12.1739C10.9783 10.8696 10 11.8478 10 13.0435V26.9565C10 28.1522 10.9783 29.1304 12.1739 29.1304H27.8261C29.0217 29.1304 30 28.1522 30 26.9565V13.0435C30 11.8478 29.0217 10.8696 27.8261 10.8696ZM29.1304 26.9565C29.1304 27.6739 28.5435 28.2609 27.8261 28.2609H12.1739C11.4565 28.2609 10.8696 27.6739 10.8696 26.9565V13.0435C10.8696 12.3261 11.4565 11.7391 12.1739 11.7391H27.8261C28.5435 11.7391 29.1304 12.3261 29.1304 13.0435V26.9565Z" fill="black"/>
<path d="M17.8262 16.0871H16.0871V14.348C16.0871 14.1088 15.8915 13.9132 15.6523 13.9132C15.4132 13.9132 15.2176 14.1088 15.2176 14.348V16.0871H13.4784C13.2393 16.0871 13.0436 16.2828 13.0436 16.5219C13.0436 16.761 13.2393 16.9567 13.4784 16.9567H15.2176V18.6958C15.2176 18.9349 15.4132 19.1306 15.6523 19.1306C15.8915 19.1306 16.0871 18.9349 16.0871 18.6958V16.9567H17.8262C18.0654 16.9567 18.261 16.761 18.261 16.5219C18.261 16.2828 18.0654 16.0871 17.8262 16.0871Z" fill="black"/>
<path d="M26.0871 16.0869H21.7393C21.5002 16.0869 21.3045 16.2825 21.3045 16.5216C21.3045 16.7608 21.5002 16.9564 21.7393 16.9564H26.0871C26.3262 16.9564 26.5219 16.7608 26.5219 16.5216C26.5219 16.2825 26.3262 16.0869 26.0871 16.0869Z" fill="black"/>
<path d="M17.4781 21.6303C17.3042 21.4564 17.0216 21.4564 16.8694 21.6303L15.652 22.8694L14.4346 21.6303C14.2607 21.4564 13.9998 21.4564 13.8259 21.6303C13.652 21.8042 13.652 22.0651 13.8259 22.239L15.0651 23.4781L13.8259 24.7172C13.652 24.8912 13.652 25.152 13.8259 25.3259C13.9129 25.4129 14.0216 25.4564 14.1303 25.4564C14.239 25.4564 14.3477 25.4129 14.4346 25.3259L15.652 24.0868L16.8694 25.3259C16.9564 25.4129 17.0651 25.4564 17.1738 25.4564C17.2825 25.4564 17.3911 25.4129 17.4781 25.3259C17.652 25.152 17.652 24.8912 17.4781 24.7172L16.2607 23.4781L17.4998 22.239C17.652 22.0651 17.652 21.8042 17.4781 21.6303Z" fill="black"/>
<path d="M26.0871 23.9132H21.7393C21.5002 23.9132 21.3045 24.1088 21.3045 24.348C21.3045 24.5871 21.5002 24.7828 21.7393 24.7828H26.0871C26.3262 24.7828 26.5219 24.5871 26.5219 24.348C26.5219 24.1088 26.3262 23.9132 26.0871 23.9132Z" fill="black"/>
<path d="M26.0871 21.3045H21.7393C21.5002 21.3045 21.3045 21.5002 21.3045 21.7393C21.3045 21.9785 21.5002 22.1741 21.7393 22.1741H26.0871C26.3262 22.1741 26.5219 21.9785 26.5219 21.7393C26.5219 21.5002 26.3262 21.3045 26.0871 21.3045Z" fill="black"/>
</svg>
