<svg width="40" height="40" viewBox="0 0 40 40" fill="none" xmlns="http://www.w3.org/2000/svg">
<circle cx="20" cy="20" r="20" fill="#F8F8FB"/>
<path fill-rule="evenodd" clip-rule="evenodd" d="M11 14.9375C11 14.6268 11.2518 14.375 11.5625 14.375H28.4375C28.7482 14.375 29 14.6268 29 14.9375V28.4375C29 28.7482 28.7482 29 28.4375 29H11.5625C11.2518 29 11 28.7482 11 28.4375V14.9375ZM12.125 15.5V27.875H27.875V15.5H12.125Z" fill="black"/>
<path fill-rule="evenodd" clip-rule="evenodd" d="M11 14.9375C11 14.6268 11.2518 14.375 11.5625 14.375H28.4375C28.7482 14.375 29 14.6268 29 14.9375V18.3125C29 19.8657 27.7407 21.125 26.1875 21.125H13.8125C12.2593 21.125 11 19.8657 11 18.3125V14.9375ZM12.125 15.5V18.3125C12.125 19.2444 12.8806 20 13.8125 20H26.1875C27.1194 20 27.875 19.2444 27.875 18.3125V15.5H12.125Z" fill="black"/>
<path fill-rule="evenodd" clip-rule="evenodd" d="M16.625 12.125C16.3141 12.125 16.0625 12.3766 16.0625 12.6875V14.9375H14.9375V12.6875C14.9375 11.7553 15.6928 11 16.625 11H23.375C24.3072 11 25.0625 11.7553 25.0625 12.6875V14.9375H23.9375V12.6875C23.9375 12.3766 23.6859 12.125 23.375 12.125H16.625Z" fill="black"/>
<path fill-rule="evenodd" clip-rule="evenodd" d="M20 18.875C19.6891 18.875 19.4375 19.1266 19.4375 19.4375V21.6875C19.4375 21.9984 19.6891 22.25 20 22.25C20.3109 22.25 20.5625 21.9984 20.5625 21.6875V19.4375C20.5625 19.1266 20.3109 18.875 20 18.875ZM18.3125 19.4375C18.3125 18.5053 19.0678 17.75 20 17.75C20.9322 17.75 21.6875 18.5053 21.6875 19.4375V21.6875C21.6875 22.6197 20.9322 23.375 20 23.375C19.0678 23.375 18.3125 22.6197 18.3125 21.6875V19.4375Z" fill="black"/>
<path fill-rule="evenodd" clip-rule="evenodd" d="M18.875 20H21.125V21.125H18.875V20Z" fill="black"/>
</svg>
