<svg width="40" height="40" viewBox="0 0 40 40" fill="none" xmlns="http://www.w3.org/2000/svg">
<circle cx="20" cy="20" r="20" fill="#F8F8FB"/>
<path fill-rule="evenodd" clip-rule="evenodd" d="M26.5261 11.817C26.6439 11.9798 26.6077 12.2075 26.4453 12.3256C23.7216 14.3062 20.4347 15.3816 17.044 15.3816H15.2494C13.2105 15.3816 11.5596 17.037 11.5596 19.0815C11.5596 20.1044 11.9713 21.0294 12.6402 21.6966L12.6415 21.6979C13.3069 22.3686 14.2293 22.7815 15.2494 22.7815H17.0406C20.5105 22.7854 23.5548 24.1686 26.4946 25.9928C26.6651 26.0987 26.7178 26.3231 26.6122 26.4941C26.5067 26.6651 26.2829 26.7179 26.1124 26.6121C23.216 24.8147 20.3104 23.5135 17.0398 23.5098H15.2494C14.0301 23.5098 12.9244 23.0154 12.1272 22.2121C11.3262 21.4127 10.8333 20.3041 10.8333 19.0815C10.8333 16.6348 12.8094 14.6533 15.2494 14.6533H17.044C20.2813 14.6533 23.419 13.6267 26.019 11.736C26.1813 11.618 26.4084 11.6542 26.5261 11.817Z" fill="black"/>
<path fill-rule="evenodd" clip-rule="evenodd" d="M26.2507 13.6038C25.9489 15.0156 25.7594 16.9825 25.7594 19.1665C25.7594 21.3505 25.9489 23.3175 26.2507 24.7294C26.4023 25.4383 26.5782 25.9882 26.7621 26.3521C26.8544 26.5348 26.9394 26.6516 27.0086 26.7178C27.0484 26.7559 27.0731 26.7684 27.0833 26.7722C27.0936 26.7684 27.1183 26.7559 27.1582 26.7178C27.2273 26.6516 27.3123 26.5348 27.4047 26.3521C27.5885 25.9882 27.7645 25.4383 27.916 24.7294C28.2178 23.3175 28.4072 21.3505 28.4072 19.1665C28.4072 16.9826 28.2178 15.0157 27.916 13.6039C27.7645 12.895 27.5885 12.3451 27.4047 11.9813C27.3123 11.7985 27.2273 11.6818 27.1582 11.6156C27.1183 11.5774 27.0936 11.5649 27.0833 11.5611C27.0731 11.5649 27.0484 11.5774 27.0086 11.6156C26.9394 11.6818 26.8544 11.7985 26.7621 11.9812C26.5782 12.3451 26.4023 12.8949 26.2507 13.6038ZM27.0888 11.5596C27.0888 11.5597 27.0881 11.5598 27.0869 11.5599C27.0882 11.5596 27.0888 11.5596 27.0888 11.5596ZM27.0798 11.5599C27.0785 11.5598 27.0779 11.5597 27.0779 11.5596C27.0779 11.5596 27.0785 11.5596 27.0798 11.5599ZM29.1667 19.1665C29.1667 16.9489 28.9748 14.9309 28.66 13.4582C28.5033 12.7249 28.3121 12.1076 28.0883 11.6648C27.9769 11.4443 27.8479 11.2478 27.6952 11.1017C27.5416 10.9547 27.3359 10.8333 27.0833 10.8333C26.8308 10.8333 26.6251 10.9547 26.4715 11.1017C26.3189 11.2478 26.1899 11.4442 26.0784 11.6648C25.8547 12.1075 25.6635 12.7248 25.5067 13.4581C25.1919 14.9308 25 16.9488 25 19.1665C25 21.3842 25.1919 23.4023 25.5067 24.875C25.6635 25.6084 25.8546 26.2257 26.0784 26.6685C26.1899 26.8891 26.3188 27.0855 26.4715 27.2316C26.6251 27.3787 26.8308 27.5 27.0833 27.5C27.3359 27.5 27.5416 27.3787 27.6952 27.2316C27.8479 27.0855 27.9769 26.8891 28.0883 26.6685C28.3121 26.2257 28.5033 25.6084 28.66 24.875C28.9748 23.4023 29.1667 21.3842 29.1667 19.1665ZM27.0779 26.7738C27.0779 26.7737 27.0785 26.7735 27.0797 26.7734C27.0785 26.7737 27.0779 26.7738 27.0779 26.7738ZM27.0869 26.7734C27.0882 26.7735 27.0888 26.7737 27.0888 26.7738C27.0888 26.7738 27.0882 26.7737 27.0869 26.7734Z" fill="black"/>
<path fill-rule="evenodd" clip-rule="evenodd" d="M13.6265 22.5042C13.8147 22.474 13.9903 22.6115 14.0187 22.8112L14.7006 27.6016H15.9212L15.305 23.2896C15.2765 23.0898 15.4059 22.9033 15.594 22.873C15.7822 22.8427 15.9579 22.98 15.9864 23.1798L16.6627 27.9126C16.6778 28.018 16.6488 28.1251 16.5833 28.206C16.5179 28.2868 16.4225 28.3333 16.322 28.3333H14.4042C14.2337 28.3333 14.0889 28.2011 14.0634 28.0221L13.3372 22.9206C13.3088 22.7208 13.4383 22.5344 13.6265 22.5042Z" fill="black"/>
<path fill-rule="evenodd" clip-rule="evenodd" d="M27.575 19.1667C27.575 18.2048 26.7952 17.425 25.8333 17.425V16.6667C27.214 16.6667 28.3333 17.786 28.3333 19.1667C28.3333 20.5473 27.214 21.6667 25.8333 21.6667V20.9083C26.7952 20.9083 27.575 20.1285 27.575 19.1667Z" fill="black"/>
</svg>
