<svg width="40" height="40" viewBox="0 0 40 40" fill="none" xmlns="http://www.w3.org/2000/svg">
<circle cx="20" cy="20" r="20" fill="#F8F8FB"/>
<path d="M21.4278 21.1111C22.6377 21.141 23.8101 20.6899 24.688 19.8568C25.5659 19.0237 26.0777 17.8765 26.1111 16.6667C26.0777 15.4568 25.5659 14.3096 24.688 13.4765C23.8101 12.6434 22.6377 12.1923 21.4278 12.2222H16.6667C16.5193 12.2222 16.378 12.2808 16.2738 12.3849C16.1697 12.4891 16.1111 12.6304 16.1111 12.7778V20H15C14.8527 20 14.7114 20.0585 14.6072 20.1627C14.503 20.2669 14.4445 20.4082 14.4445 20.5556C14.4445 20.7029 14.503 20.8442 14.6072 20.9484C14.7114 21.0526 14.8527 21.1111 15 21.1111H16.1111V22.2222H15C14.8527 22.2222 14.7114 22.2808 14.6072 22.3849C14.503 22.4891 14.4445 22.6304 14.4445 22.7778C14.4445 22.9251 14.503 23.0664 14.6072 23.1706C14.7114 23.2748 14.8527 23.3333 15 23.3333H16.1111V27.2222C16.1111 27.3696 16.1697 27.5109 16.2738 27.6151C16.378 27.7192 16.5193 27.7778 16.6667 27.7778C16.814 27.7778 16.9553 27.7192 17.0595 27.6151C17.1637 27.5109 17.2222 27.3696 17.2222 27.2222V23.3333H22.2222C22.3696 23.3333 22.5109 23.2748 22.6151 23.1706C22.7193 23.0664 22.7778 22.9251 22.7778 22.7778C22.7778 22.6304 22.7193 22.4891 22.6151 22.3849C22.5109 22.2808 22.3696 22.2222 22.2222 22.2222H17.2222V21.1111H21.4278ZM17.2222 13.3333H21.4278C22.3427 13.3048 23.2317 13.6393 23.9009 14.2637C24.5702 14.8882 24.9653 15.752 25 16.6667C24.9667 17.5818 24.572 18.4465 23.9025 19.0713C23.2329 19.696 22.3431 20.03 21.4278 20H17.2222V13.3333Z" fill="black"/>
</svg>
