<svg width="40" height="40" viewBox="0 0 40 40" fill="none" xmlns="http://www.w3.org/2000/svg">
<circle cx="20" cy="20" r="20" fill="#F8F8FB"/>
<path d="M20.09 29.3468C14.973 29.3468 10.8333 25.1879 10.8333 20.09C10.8333 14.9921 14.973 10.8333 20.09 10.8333C25.2071 10.8333 29.3467 14.9921 29.3467 20.09C29.3467 25.1879 25.1879 29.3468 20.09 29.3468ZM20.09 11.9641C15.6054 11.9641 11.9832 15.6054 11.9832 20.09C11.9832 24.5555 15.6246 28.1969 20.09 28.1969C24.5555 28.1969 28.1968 24.5555 28.1968 20.09C28.1968 15.6054 24.5555 11.9641 20.09 11.9641Z" fill="black"/>
<path d="M20.1858 15.1648C18.4418 15.1648 17.0044 16.583 17.0044 18.3462C17.0044 18.6336 17.2343 18.8637 17.5219 18.8637C17.8093 18.8637 18.0394 18.6338 18.0394 18.3462C18.0394 17.158 18.9976 16.1998 20.1858 16.1998C21.374 16.1996 22.3323 17.1579 22.3323 18.3462C22.3323 19.5344 21.374 20.4927 20.1858 20.4927C19.8984 20.4927 19.6683 20.7226 19.6683 21.0102V22.5625C19.6683 22.8499 19.8983 23.08 20.1858 23.08C20.4732 23.08 20.7033 22.85 20.7033 22.5625V21.47C22.2173 21.2208 23.3672 19.9177 23.3672 18.327C23.3672 16.5829 21.949 15.1648 20.1858 15.1648Z" fill="black"/>
<path d="M20.9138 24.6512C20.9138 25.0535 20.5877 25.3796 20.1855 25.3796C19.7832 25.3796 19.4572 25.0535 19.4572 24.6512C19.4572 24.249 19.7832 23.9229 20.1855 23.9229C20.5877 23.9229 20.9138 24.249 20.9138 24.6512Z" fill="black"/>
</svg>
