<svg width="24" height="24" viewBox="0 0 24 24" fill="none" xmlns="http://www.w3.org/2000/svg">
<path d="M22.1456 3.14499C21.7856 2.83971 21.2202 2.79603 20.6355 3.03075H20.6346C20.0197 3.27747 3.22928 10.4794 2.54576 10.7736C2.42144 10.8168 1.33568 11.2219 1.44752 12.1243C1.54736 12.9379 2.42 13.2749 2.52656 13.3138L6.7952 14.7754C7.0784 15.7181 8.1224 19.1962 8.35328 19.9392C8.49728 20.4024 8.732 21.0111 9.14336 21.1363C9.50432 21.2755 9.86336 21.1483 10.0957 20.9659L12.7054 18.5453L16.9184 21.8309L17.0187 21.8909C17.3048 22.0176 17.5789 22.081 17.8405 22.081C18.0426 22.081 18.2365 22.0431 18.4218 21.9672C19.053 21.708 19.3054 21.1066 19.3318 21.0384L22.4787 4.68147C22.6707 3.80787 22.4038 3.36339 22.1456 3.14499ZM10.5598 15.36L9.11984 19.2L7.67984 14.4L18.7198 6.24003L10.5598 15.36Z" fill="#28A8E9"/>
</svg>
