<svg width="40" height="40" viewBox="0 0 40 40" fill="none" xmlns="http://www.w3.org/2000/svg">
<circle cx="20" cy="20" r="20" fill="#F8F8FB"/>
<path d="M28.692 14.7823C28.5599 14.7049 28.4082 14.6649 28.254 14.6668C28.0831 14.6662 27.9155 14.7123 27.7703 14.8001L24.6032 16.7288V15.1112C24.6032 14.6396 24.4109 14.1875 24.0686 13.854C23.7262 13.5206 23.2619 13.3333 22.7778 13.3333H11.8254C11.3413 13.3333 10.877 13.5206 10.5346 13.854C10.1922 14.1874 10 14.6396 10 15.1112V24.8889C10 25.3604 10.1923 25.8126 10.5346 26.146C10.877 26.4795 11.3413 26.6667 11.8254 26.6667H22.7778C23.2619 26.6667 23.7262 26.4794 24.0686 26.146C24.4109 25.8126 24.6032 25.3604 24.6032 24.8889V23.2712L27.7702 25.2001L27.7703 25.1999C27.9155 25.2877 28.0831 25.3339 28.254 25.3333C28.4083 25.3351 28.5599 25.2951 28.692 25.2178C28.8348 25.1417 28.954 25.0299 29.0374 24.894C29.1208 24.758 29.1656 24.6028 29.1667 24.4444V15.5556C29.1656 15.3972 29.1208 15.242 29.0374 15.1061C28.954 14.9701 28.8348 14.8584 28.692 14.7823L28.692 14.7823ZM23.6905 24.8889C23.6905 25.1247 23.5944 25.3509 23.4231 25.5175C23.252 25.6841 23.0198 25.7779 22.7777 25.7779H11.8254C11.5833 25.7779 11.3511 25.6841 11.18 25.5175C11.0087 25.3509 10.9126 25.1247 10.9126 24.8889V15.1112C10.9126 14.8755 11.0087 14.6493 11.18 14.4827C11.3511 14.316 11.5833 14.2222 11.8254 14.2222H22.7777C23.0198 14.2222 23.252 14.316 23.4231 14.4827C23.5944 14.6493 23.6905 14.8754 23.6905 15.1112V24.8889ZM28.254 24.4445L24.6031 22.2223V17.7779L28.254 15.5557V24.4445Z" fill="black"/>
</svg>
